<?xml version="1.0" encoding="utf-8"?>
<!-- Uploaded to: SVG Repo, www.svgrepo.com, Generator: SVG Repo Mixer Tools -->
<svg width="800px" height="800px" viewBox="0 0 1024 1024" class="icon"  version="1.1" xmlns="http://www.w3.org/2000/svg"><path d="M526.914539 655.764399l36.11906 22.359872-35.571566 57.460596-36.119061-22.359872 35.571567-57.460596Z" fill="#FFFFFF" /><path d="M521.39 736a26 26 0 0 1-13.75-3.94l-4.28-2.65a26.22 26.22 0 0 1-8.5-36.1l15.86-25.63a26.22 26.22 0 0 1 36.1-8.5l4.28 2.65a26.22 26.22 0 0 1 8.5 36.1l-15.86 25.63a26 26 0 0 1-16.29 11.72 26.41 26.41 0 0 1-6.06 0.72zM533 670.31a11.33 11.33 0 0 0-2.59 0.3 11.15 11.15 0 0 0-7 5l-15.86 25.63a11.22 11.22 0 0 0 3.64 15.45l4.28 2.65a11.22 11.22 0 0 0 15.53-3.62l15.86-25.63a11.22 11.22 0 0 0-3.64-15.45l-4.3-2.64a11.15 11.15 0 0 0-5.92-1.69z" fill="#66A9F7" /><path d="M435.32 143.93L873.74 415.34a48.26 48.26 0 0 1 15.631 66.436l-95.003 153.463a48.26 48.26 0 0 1-66.435 15.632L288.9 379.082l145.423-234.91a0.72 0.72 0 0 1 0.991-0.233z" fill="#DFEDFF" /><path d="M287.66 379.48a21.93 21.93 0 0 1-30.16 7.23 21.93 21.93 0 0 1-7-30.22l148.36-239.67a21.93 21.93 0 0 1 30.14-7.23 21.93 21.93 0 0 1 7 30.22" fill="#FFFFFF" /><path d="M268.87 397.47a29 29 0 0 1-15.32-4.38 29.47 29.47 0 0 1-9.41-40.54l148.35-239.68a29.47 29.47 0 0 1 40.51-9.65 29.06 29.06 0 0 1 13.1 18.3 29.42 29.42 0 0 1-3.69 22.24 7.5 7.5 0 0 1-12.75-7.89 14.51 14.51 0 0 0 1.83-11 14.17 14.17 0 0 0-6.38-8.93 14.45 14.45 0 0 0-19.84 4.8L256.89 360.43a14.45 14.45 0 0 0 4.55 19.9 14.15 14.15 0 0 0 10.83 1.73 14.51 14.51 0 0 0 9-6.53 7.5 7.5 0 0 1 12.73 7.9 29.61 29.61 0 0 1-25.16 14z" fill="#66A9F7" /><path d="M248.1 373.82a2.5 2.5 0 0 1-2.48-2.19 24.69 24.69 0 0 1 3.51-16 2.5 2.5 0 1 1 4.25 2.63 19.67 19.67 0 0 0-2.8 12.75 2.5 2.5 0 0 1-2.17 2.79zM269.65 392.92q-0.82 0-1.64-0.05a2.5 2.5 0 1 1 0.34-5h1.31a19.45 19.45 0 0 0 16.63-9.29l3.19-5.15a2.5 2.5 0 1 1 4.25 2.63l-3.19 5.15a24.42 24.42 0 0 1-20.89 11.71z m37.71-41.11a2.5 2.5 0 0 1-2.12-3.82L321 322.5a2.5 2.5 0 0 1 4.25 2.63l-15.77 25.49a2.5 2.5 0 0 1-2.12 1.18z m31.55-51a2.5 2.5 0 0 1-2.12-3.82l15.78-25.48a2.5 2.5 0 0 1 4.25 2.63L341 299.65a2.5 2.5 0 0 1-2.09 1.18z m31.55-51a2.5 2.5 0 0 1-2.12-3.82l15.78-25.48a2.5 2.5 0 0 1 4.25 2.63l-15.78 25.48a2.5 2.5 0 0 1-2.13 1.25z m31.55-51a2.5 2.5 0 0 1-2.12-3.82l15.78-25.48a2.5 2.5 0 0 1 4.25 2.63l-15.78 25.48a2.5 2.5 0 0 1-2.14 1.28z m31.55-51a2.5 2.5 0 0 1-2.12-3.82l3.19-5.15a19.54 19.54 0 0 0 0.28-20.17 2.5 2.5 0 1 1 4.31-2.53 24.54 24.54 0 0 1-0.35 25.33l-3.19 5.15a2.5 2.5 0 0 1-2.12 1.31zM399.6 119.78a2.5 2.5 0 0 1-2.12-3.82 24.68 24.68 0 0 1 12.76-10.28 2.5 2.5 0 1 1 1.66 4.72 19.67 19.67 0 0 0-10.17 8.19 2.5 2.5 0 0 1-2.13 1.19z" fill="#66A9F7" /><path d="M287.7 380.07l271.15 199.07a43.69 43.69 0 0 1 11.29 58.21L457.62 819.13a87.37 87.37 0 0 0 28.31 120.28A87.37 87.37 0 0 0 606.2 911.1l116.51-188.22s23.42-41.77 73.1-63.61" fill="#DFEDFF" /><path d="M531.73 960a94.9 94.9 0 0 1-80.49-144.84L563.76 633.4a36.37 36.37 0 0 0-9.35-48.22L283.26 386.12a7.5 7.5 0 0 1 8.88-12.12l271.14 199.09a51.45 51.45 0 0 1 13.23 68.2L464 823.07a79.87 79.87 0 1 0 135.83 84.08l116.43-188.1c1.9-3.33 26.18-44.52 76.53-66.65a7.5 7.5 0 1 1 6 13.73c-46.84 20.59-69.35 60-69.58 60.41l-0.17 0.28L612.58 915a94.25 94.25 0 0 1-58.94 42.42 95.56 95.56 0 0 1-21.91 2.58z" fill="#66A9F7" /><path d="M792.65 660.7c37.42-16.58 71.1-37 94.34-74.5a174.75 174.75 0 0 0-56.61-240.56 163.96 163.96 0 0 0-5.54-3.27l0.07-0.11-3.68-1.89c-2.19-1.18-4.39-2.32-6.61-3.4L435.24 141.73" fill="#DFEDFF" /><path d="M792.66 668.2a7.5 7.5 0 0 1-3-14.36c33.4-14.8 67.55-33.71 91-71.59 48.54-78.42 24.23-181.7-54.18-230.24-1.57-1-3.26-2-5.3-3.13a7.47 7.47 0 0 1-0.9-0.6L817.8 347l-0.13-0.07c-2.28-1.23-4.35-2.29-6.33-3.25l-0.15-0.08-379.38-195.2a7.5 7.5 0 1 1 6.86-13.34L818 330.25c2.12 1 4.33 2.17 6.75 3.47l3.61 1.86a7.51 7.51 0 0 1 1.44 1c1.68 1 3.14 1.84 4.54 2.71 85.45 52.89 111.93 165.44 59 250.89-25.66 41.46-63.78 62.4-97.68 77.41a7.47 7.47 0 0 1-3 0.61z" fill="#66A9F7" /><path d="M743.719419 495.404861m-64.38464 104.003848a122.32 122.32 0 1 0 128.76928-208.007697 122.32 122.32 0 1 0-128.76928 208.007697Z" fill="#DFEDFF" /><path d="M743.64 620.21h-0.06a124.61 124.61 0 0 1-23.66-2.27 2.5 2.5 0 1 1 1-4.91 119.6 119.6 0 0 0 22.71 2.18h0.05c2 0 4-0.05 6-0.15a2.5 2.5 0 1 1 0.25 5c-2.09 0.1-4.2 0.15-6.29 0.15z m35.23-5.21a2.5 2.5 0 0 1-0.72-4.9 120.24 120.24 0 0 0 26.47-11.56 2.5 2.5 0 0 1 2.54 4.31 125.26 125.26 0 0 1-27.58 12 2.48 2.48 0 0 1-0.71 0.15z m-86.53-6.13a2.49 2.49 0 0 1-1.05-0.23 126.51 126.51 0 0 1-25.58-15.83 2.5 2.5 0 0 1 3.12-3.91 121.56 121.56 0 0 0 24.57 15.2 2.5 2.5 0 0 1-1.05 4.77z m137-23.61a2.5 2.5 0 0 1-1.75-4.29 120.33 120.33 0 0 0 18-22.57l0.06-0.1a2.5 2.5 0 0 1 4.24 2.65l-0.06 0.09A125.43 125.43 0 0 1 831 584.58a2.5 2.5 0 0 1-1.7 0.71z m-182.68-13a2.5 2.5 0 0 1-2-1 124.67 124.67 0 0 1-15.28-25.92 2.5 2.5 0 0 1 4.58-2 119.58 119.58 0 0 0 14.67 24.88 2.5 2.5 0 0 1-2 4z m213.49-36.86a2.5 2.5 0 0 1-2.38-3.27 119.11 119.11 0 0 0 5.48-28.36 2.5 2.5 0 1 1 5 0.35 124.12 124.12 0 0 1-5.71 29.55 2.5 2.5 0 0 1-2.39 1.73z m-237-16.71a2.5 2.5 0 0 1-2.46-2.07 125.46 125.46 0 0 1-1.84-21.36c0-2.89 0.1-5.81 0.3-8.69a2.5 2.5 0 1 1 5 0.35c-0.19 2.76-0.29 5.57-0.29 8.34a120.44 120.44 0 0 0 1.76 20.51 2.5 2.5 0 0 1-2.47 2.93zM864.23 477a2.5 2.5 0 0 1-2.46-2.07 120.55 120.55 0 0 0-8.32-27.67 2.5 2.5 0 1 1 4.58-2 125.64 125.64 0 0 1 8.66 28.82 2.5 2.5 0 0 1-2.47 2.93z m-237-16.71a2.5 2.5 0 0 1-2.38-3.27 125.34 125.34 0 0 1 12.65-27.3 2.5 2.5 0 0 1 4.25 2.63 120.39 120.39 0 0 0-12.15 26.21 2.5 2.5 0 0 1-2.34 1.73z m213.49-36.93a2.5 2.5 0 0 1-2-1 119.17 119.17 0 0 0-20.24-20.61 2.5 2.5 0 0 1 3.12-3.91 124.24 124.24 0 0 1 21.09 21.48 2.5 2.5 0 0 1-2 4z m-182.66-12.88a2.5 2.5 0 0 1-1.75-4.28 124.19 124.19 0 0 1 23.88-18.32 2.5 2.5 0 0 1 2.54 4.31 119.21 119.21 0 0 0-22.92 17.58 2.49 2.49 0 0 1-1.75 0.71zM795 386.81a2.5 2.5 0 0 1-1-0.23 119.2 119.2 0 0 0-27.48-8.88 2.5 2.5 0 0 1 0.95-4.91 124.25 124.25 0 0 1 28.59 9.21 2.5 2.5 0 0 1-1.05 4.77z m-86.53-6.09a2.5 2.5 0 0 1-0.72-4.9 125.74 125.74 0 0 1 29.64-5.14 2.5 2.5 0 1 1 0.26 5 120.64 120.64 0 0 0-28.46 4.93 2.49 2.49 0 0 1-0.71 0.12zM254.21 262.94a7.5 7.5 0 0 1-7.43-6.54c-0.26-1.94-6.83-46.93-50.19-46.93q-1.38 0-2.81 0.06c-24 1-46.14-7.59-64-25A100.6 100.6 0 0 1 110 157.76a7.5 7.5 0 0 1 13.6-6.32 87.16 87.16 0 0 0 17 22.74c14.92 14.38 32.57 21.24 52.47 20.37 31.27-1.37 48.35 15.21 57.16 29.35a84.3 84.3 0 0 1 11.37 30.57 7.5 7.5 0 0 1-6.48 8.4 7.62 7.62 0 0 1-0.91 0.07zM277.48 223a7.5 7.5 0 0 1-7.43-6.54c-0.26-1.94-6.83-46.93-50.19-46.93q-1.38 0-2.81 0.06c-24 1-46.14-7.59-64-25a100.6 100.6 0 0 1-19.79-26.81 7.5 7.5 0 0 1 13.6-6.32 87.16 87.16 0 0 0 17 22.74c14.92 14.38 32.58 21.25 52.47 20.37 31.28-1.36 48.35 15.21 57.16 29.35a84.3 84.3 0 0 1 11.37 30.57 7.5 7.5 0 0 1-6.48 8.4 7.62 7.62 0 0 1-0.9 0.11zM300.75 183a7.5 7.5 0 0 1-7.43-6.54c-0.26-1.94-6.83-46.93-50.19-46.93q-1.38 0-2.81 0.06c-24 1-46.14-7.59-64-25a100.57 100.57 0 0 1-19.79-26.81 7.5 7.5 0 0 1 13.6-6.32 87.26 87.26 0 0 0 17 22.74c14.92 14.38 32.57 21.25 52.47 20.37 31.27-1.37 48.35 15.21 57.16 29.35a84.3 84.3 0 0 1 11.37 30.57 7.5 7.5 0 0 1-6.48 8.4 7.62 7.62 0 0 1-0.9 0.11z" fill="#66A9F7" /></svg>